<?xml version="1.0" encoding="utf-8"?>
<!-- Generator: Adobe Illustrator 16.0.0, SVG Export Plug-In . SVG Version: 6.00 Build 0)  -->
<!DOCTYPE svg PUBLIC "-//W3C//DTD SVG 1.1//EN" "http://www.w3.org/Graphics/SVG/1.1/DTD/svg11.dtd">
<svg version="1.1" id="Layer_1" xmlns="http://www.w3.org/2000/svg" xmlns:xlink="http://www.w3.org/1999/xlink" x="0px" y="0px"
	 width="207.75px" height="20.125px" viewBox="2.75 7.125 207.75 20.125" enable-background="new 2.75 7.125 207.75 20.125"
	 xml:space="preserve">
<g enable-background="new    ">
	<path fill="#FFFFFF" d="M3.385,8.201h13.392v3.408H7.465v3.552h8.064v3.24H7.465v4.152h9.48v3.504H3.385V8.201z"/>
	<path fill="#FFFFFF" d="M18.601,8.201h14.736v3.48h-5.328v14.376h-4.104V11.682h-5.304V8.201z"/>
	<path fill="#FFFFFF" d="M34.873,8.201h14.736v3.48h-5.328v14.376h-4.104V11.682h-5.304V8.201z"/>
	<path fill="#FFFFFF" d="M51.769,8.201h13.392v3.408h-9.312v3.552h8.064v3.24h-8.064v4.152h9.48v3.504h-13.56V8.201z"/>
	<path fill="#FFFFFF" d="M67.849,8.201h8.496c0.864,0,1.668,0.112,2.412,0.337c0.744,0.224,1.388,0.556,1.932,0.995
		c0.543,0.44,0.972,0.977,1.284,1.608s0.468,1.356,0.468,2.172c0,1.056-0.264,1.952-0.792,2.688
		c-0.528,0.735-1.368,1.288-2.52,1.655v0.072c0.896,0.272,1.556,0.676,1.98,1.212c0.424,0.536,0.7,1.284,0.828,2.244
		c0.08,0.608,0.14,1.181,0.18,1.716c0.04,0.536,0.08,1.017,0.12,1.44s0.092,0.768,0.156,1.032c0.063,0.264,0.168,0.428,0.312,0.491
		v0.192h-4.032c-0.128-0.063-0.22-0.224-0.276-0.48c-0.056-0.255-0.104-0.571-0.144-0.947c-0.04-0.376-0.076-0.796-0.108-1.261
		c-0.032-0.464-0.072-0.943-0.12-1.439c-0.112-0.896-0.404-1.568-0.876-2.016c-0.472-0.448-1.204-0.673-2.196-0.673h-3.024v6.816
		h-4.08V8.201z M71.929,16.218h3.624c0.912,0,1.608-0.212,2.088-0.636s0.72-0.996,0.72-1.717c0-0.735-0.22-1.323-0.66-1.764
		c-0.44-0.439-1.116-0.66-2.028-0.66h-3.744V16.218z"/>
	<path fill="#FFFFFF" d="M85.009,8.201h4.176l4.704,7.753c0.272,0.464,0.548,0.964,0.828,1.5c0.279,0.536,0.54,1.044,0.78,1.523
		l0.84,1.68h0.048c-0.048-0.607-0.088-1.224-0.12-1.848c-0.032-0.528-0.056-1.096-0.072-1.704c-0.016-0.607-0.024-1.168-0.024-1.68
		V8.201h3.912v17.856h-4.2l-4.656-7.656c-0.272-0.447-0.552-0.951-0.84-1.512c-0.288-0.56-0.552-1.08-0.792-1.56
		c-0.288-0.561-0.568-1.129-0.84-1.704h-0.048c0.032,0.624,0.064,1.248,0.096,1.872c0.032,0.527,0.06,1.096,0.084,1.703
		c0.024,0.608,0.036,1.169,0.036,1.681v7.176h-3.912V8.201z"/>
	<path fill="#FFFFFF" d="M108.24,8.201h4.248l6.456,17.856h-4.319l-1.129-3.408h-6.479l-1.104,3.408h-4.104L108.24,8.201z
		 M107.977,19.722h4.584l-1.08-3.336c-0.191-0.608-0.36-1.196-0.504-1.764c-0.145-0.568-0.264-1.076-0.36-1.524
		c-0.112-0.528-0.208-1.016-0.288-1.464h-0.048c-0.128,0.592-0.256,1.168-0.384,1.728c-0.129,0.48-0.26,0.996-0.396,1.548
		c-0.136,0.553-0.275,1.045-0.42,1.477L107.977,19.722z"/>
</g>
<g enable-background="new    ">
	<path fill="#FFFFFF" d="M128.904,26.441c-1.344,0-2.557-0.236-3.637-0.708s-2-1.124-2.76-1.956c-0.76-0.831-1.34-1.815-1.74-2.952
		c-0.399-1.136-0.6-2.367-0.6-3.695c0-1.345,0.2-2.584,0.6-3.721c0.4-1.136,0.98-2.115,1.74-2.939s1.68-1.472,2.76-1.944
		c1.08-0.472,2.293-0.708,3.637-0.708s2.556,0.236,3.636,0.708c1.08,0.473,2,1.12,2.761,1.944c0.76,0.824,1.344,1.804,1.752,2.939
		c0.407,1.137,0.611,2.376,0.611,3.721c0,1.328-0.204,2.56-0.611,3.695c-0.408,1.137-0.992,2.121-1.752,2.952
		c-0.761,0.832-1.681,1.484-2.761,1.956S130.248,26.441,128.904,26.441z M128.904,24.281c1.008,0,1.899-0.18,2.676-0.54
		c0.775-0.359,1.428-0.859,1.956-1.5c0.528-0.64,0.924-1.396,1.188-2.268c0.264-0.872,0.396-1.82,0.396-2.844
		c0-1.024-0.132-1.977-0.396-2.856c-0.265-0.88-0.66-1.64-1.188-2.28c-0.528-0.64-1.181-1.144-1.956-1.512
		c-0.776-0.368-1.668-0.552-2.676-0.552s-1.9,0.184-2.676,0.552c-0.776,0.368-1.428,0.872-1.957,1.512
		c-0.527,0.641-0.928,1.4-1.199,2.28c-0.272,0.88-0.408,1.832-0.408,2.856c0,1.023,0.136,1.972,0.408,2.844
		c0.271,0.872,0.672,1.628,1.199,2.268c0.529,0.641,1.181,1.141,1.957,1.5C127.004,24.102,127.896,24.281,128.904,24.281z"/>
	<path fill="#FFFFFF" d="M140.664,8.201h2.568l7.319,11.185c0.224,0.336,0.452,0.708,0.685,1.116
		c0.231,0.407,0.443,0.796,0.636,1.164c0.224,0.416,0.448,0.84,0.672,1.271h0.071c-0.031-0.447-0.063-0.896-0.096-1.344
		c-0.031-0.384-0.052-0.8-0.06-1.248c-0.009-0.448-0.013-0.855-0.013-1.224V8.201h2.305v17.856h-2.544l-7.296-11.184
		c-0.225-0.336-0.453-0.704-0.684-1.104c-0.232-0.399-0.453-0.783-0.66-1.152c-0.24-0.415-0.473-0.84-0.696-1.271h-0.048
		c0.016,0.448,0.039,0.896,0.072,1.344c0.016,0.384,0.031,0.792,0.047,1.225c0.016,0.432,0.024,0.832,0.024,1.199v10.944h-2.304
		V8.201z"/>
	<path fill="#FFFFFF" d="M158.447,8.201h2.448v15.624h9.24v2.232h-11.688V8.201z"/>
	<path fill="#FFFFFF" d="M172.775,8.201h2.448v17.856h-2.448V8.201z"/>
	<path fill="#FFFFFF" d="M178.967,8.201h2.568l7.32,11.185c0.224,0.336,0.451,0.708,0.684,1.116
		c0.232,0.407,0.443,0.796,0.637,1.164c0.223,0.416,0.447,0.84,0.672,1.271h0.071c-0.032-0.447-0.063-0.896-0.096-1.344
		c-0.032-0.384-0.052-0.8-0.06-1.248c-0.009-0.448-0.013-0.855-0.013-1.224V8.201h2.304v17.856h-2.543l-7.297-11.184
		c-0.225-0.336-0.452-0.704-0.684-1.104c-0.232-0.399-0.452-0.783-0.66-1.152c-0.24-0.415-0.473-0.84-0.695-1.271h-0.049
		c0.016,0.448,0.04,0.896,0.072,1.344c0.016,0.384,0.031,0.792,0.048,1.225c0.016,0.432,0.024,0.832,0.024,1.199v10.944h-2.305
		V8.201z"/>
	<path fill="#FFFFFF" d="M196.752,8.201h12.695v2.16h-10.248v5.4h9.264v2.04h-9.264v6.023h10.512v2.232h-12.959V8.201z"/>
</g>
</svg>
